<svg width="20" height="20" viewBox="0 0 20 20" fill="none" xmlns="http://www.w3.org/2000/svg">
<path d="M9.99997 10.8313L7.41379 13.424C7.29413 13.5427 7.15448 13.6021 6.9948 13.6021C6.83517 13.6021 6.69555 13.5427 6.57601 13.424C6.45726 13.3052 6.39789 13.1667 6.39789 13.0083C6.39789 12.85 6.45726 12.7115 6.57601 12.5927L9.16872 10L6.57601 7.43363C6.45726 7.31397 6.39789 7.17428 6.39789 7.01464C6.39789 6.855 6.45726 6.71539 6.57601 6.59585C6.69476 6.4771 6.8333 6.41772 6.99164 6.41772C7.14997 6.41772 7.28851 6.4771 7.40726 6.59585L9.99997 9.18856L12.5664 6.59585C12.6728 6.4771 12.8092 6.41772 12.9755 6.41772C13.1417 6.41772 13.2846 6.4771 13.4041 6.59585C13.5229 6.7146 13.5823 6.85314 13.5823 7.01147C13.5823 7.16981 13.5229 7.30835 13.4041 7.4271L10.8114 10L13.4041 12.5862C13.5229 12.7059 13.5823 12.8455 13.5823 13.0052C13.5823 13.1648 13.5229 13.3044 13.4041 13.424C13.2854 13.5427 13.1468 13.6021 12.9885 13.6021C12.8302 13.6021 12.6916 13.5427 12.5729 13.424L9.99997 10.8313Z" fill="#9282FA"/>
</svg>
